<?xml version="1.0" encoding="UTF-8" standalone="no"?>
<!-- Created with Inkscape (http://www.inkscape.org/) -->

<svg
   width="67.43502mm"
   height="46.953091mm"
   viewBox="0 0 67.43502 46.953091"
   version="1.1"
   id="svg8"
   inkscape:version="1.1 (c68e22c387, 2021-05-23)"
   sodipodi:docname="CHaOS Logo.svg"
   xmlns:inkscape="http://www.inkscape.org/namespaces/inkscape"
   xmlns:sodipodi="http://sodipodi.sourceforge.net/DTD/sodipodi-0.dtd"
   xmlns="http://www.w3.org/2000/svg"
   xmlns:svg="http://www.w3.org/2000/svg"
   xmlns:rdf="http://www.w3.org/1999/02/22-rdf-syntax-ns#"
   xmlns:cc="http://creativecommons.org/ns#"
   xmlns:dc="http://purl.org/dc/elements/1.1/"
   xmlns:serif="http://www.serif.com/">
  <defs
     id="defs2">
        
    </defs>
  <sodipodi:namedview
     id="base"
     pagecolor="#ffffff"
     bordercolor="#666666"
     borderopacity="1.0"
     inkscape:pageopacity="0.0"
     inkscape:pageshadow="2"
     inkscape:zoom="3.959798"
     inkscape:cx="18.814091"
     inkscape:cy="28.031733"
     inkscape:document-units="mm"
     inkscape:current-layer="layer1"
     showgrid="false"
     showborder="false"
     inkscape:pagecheckerboard="0" />
  <metadata
     id="metadata5">
    <rdf:RDF>
      <cc:Work
         rdf:about="">
        <dc:format>image/svg+xml</dc:format>
        <dc:type
           rdf:resource="http://purl.org/dc/dcmitype/StillImage" />
        <dc:title />
      </cc:Work>
    </rdf:RDF>
  </metadata>
  <g
     inkscape:label="Layer 1"
     inkscape:groupmode="layer"
     id="layer1"
     transform="translate(-191.5563,-109.57108)">
    <g
   id="CHaOS-Logo"
   serif:id="CHaOS Logo"
   transform="matrix(0.26458333,0,0,0.26458333,191.56358,109.57114)">
            <path
   d="m 69.62,1.572 c -1.552,0.864 -3.155,1.867 -3.613,2.261 -1.675,1.439 -3.348,2.273 -6.305,3.144 -1.699,0.5 -10.815,4.907 -13.579,6.695 -2.183,1.412 -6.935,5.982 -6.935,6.668 0,0.25 -0.292,0.722 -0.68,1.104 -1.183,1.162 -2.802,4.862 -3.741,8.548 -0.699,2.74 -0.915,5.286 -0.915,10.766 0,9.942 0.978,13.862 5.068,20.321 0.768,1.213 1.534,2.293 1.722,2.432 0.504,0.37 1.116,2.126 0.994,2.853 -0.112,0.676 -2.199,3.492 -4.312,5.82 -0.636,0.7 -2.61,3.2 -4.442,5.625 -1.832,2.425 -3.697,4.828 -4.195,5.408 -0.501,0.583 -1.219,1.451 -1.624,1.964 -0.396,0.501 -1.558,1.94 -2.547,3.152 -0.988,1.213 -1.818,2.363 -1.818,2.522 0,0.161 -0.371,0.679 -0.834,1.164 -1.001,1.048 -1.752,1.988 -3.751,4.704 -0.785,1.067 -1.717,2.267 -2.071,2.667 -1.798,2.038 -6.766,8.636 -7.34,9.749 -0.453,0.879 -0.599,2.716 -0.48,6.061 0.154,4.364 0.302,5 1.624,6.984 0.809,1.212 1.584,2.289 1.746,2.424 0.54,0.447 2.961,5.529 3.928,8.245 1.279,3.589 3.784,13.094 3.784,14.355 0,0.721 -0.68,1.385 -2.328,2.276 -3.68,1.989 -7.809,6.356 -12.568,13.292 -1.812,2.643 -3.602,6.984 -4.138,10.04 -0.484,2.764 -0.451,2.956 0.653,3.84 1.307,1.046 3.783,0.913 7.226,-0.387 2.376,-0.897 5.346,-0.697 7.663,0.519 1.719,0.901 4.607,0.896 6.352,-0.013 2.884,-1.5 5.578,-1.761 9.797,-0.951 2.231,0.428 4.685,0.622 5.504,0.433 0.815,-0.185 3.735,-0.513 6.499,-0.726 2.765,-0.214 5.237,-0.607 5.504,-0.874 0.28,-0.278 0.413,-2.134 0.316,-4.364 -0.129,-2.959 -0.412,-4.209 -1.188,-5.262 -0.563,-0.764 -1.269,-2.4 -1.58,-3.661 -0.885,-3.587 -2.808,-6.597 -6.819,-10.67 -2.005,-2.036 -4.117,-4.308 -4.647,-4.996 -0.522,-0.678 -1.19,-1.529 -1.446,-1.842 -0.662,-0.81 -1.312,-2.28 -3.148,-7.13 -1.527,-4.031 -2.749,-6.885 -5.148,-12.026 -1.426,-3.056 -1.46,-3.658 -0.297,-5.336 2.267,-3.272 3.121,-8.002 2.093,-11.59 -0.251,-0.873 -0.308,-1.616 -0.13,-1.697 0.174,-0.081 1.822,-1.988 3.686,-4.268 1.864,-2.279 3.598,-4.339 3.88,-4.607 0.28,-0.268 1.6,-1.795 2.934,-3.395 1.334,-1.601 2.862,-3.39 3.394,-3.977 0.54,-0.592 2.368,-2.619 4.115,-4.559 4.453,-4.947 10.672,-11.106 11.211,-11.106 0.231,0 0.825,0.214 1.261,0.454 3.551,1.957 4.511,2.127 9.99,1.782 3.008,-0.191 6.299,-0.576 7.372,-0.863 2.038,-0.544 8.391,-4.575 10.524,-6.677 0.684,-0.675 2.037,-1.953 2.959,-2.796 1.38,-1.263 5.02,-5.479 7.032,-8.147 0.969,-1.284 2.452,-4.122 2.964,-5.674 0.552,-1.674 0.769,-1.807 5.28,-3.225 2.57,-0.809 6.684,-2.051 9.068,-2.741 2.425,-0.7 5.013,-1.54 5.82,-1.891 0.789,-0.342 2.231,-0.797 3.152,-0.993 0.937,-0.201 2.959,-0.772 4.511,-1.272 3.734,-1.206 10.147,-2.094 12.221,-1.694 2.146,0.414 4.389,2.311 5.371,4.542 0.426,0.97 0.985,2.24 1.216,2.764 0.391,0.884 0.792,3.347 1.936,11.882 0.572,4.268 1.271,8.274 1.676,9.603 0.251,0.824 0.148,1.067 -0.452,1.067 -1.15,0 -6.318,5.238 -7.656,7.76 -2.932,5.528 -4.759,12.34 -4.759,17.75 0,3.055 0.867,5.549 2.474,7.113 0.978,0.951 1.505,1.033 2.717,0.419 4.073,-2.062 8.236,-3.392 11.3,-3.611 3.103,-0.222 6.157,-1.489 9.165,-3.803 0.63,-0.484 2.31911,-1.10073 2.473,-1.282 0.39608,-0.466547 3.054,-1.552 5.044,-1.552 1.842,0 11.549,-3.044 12.754,-4 1.31,-1.038 0.684,-4.245 -1.826,-9.385 -1.351,-2.764 -3.08,-5.796 -3.872,-6.789 -0.774,-0.97 -1.818,-2.651 -2.303,-2.812 -0.825,-0.276 -2.522,-1.26 -3.008,-1.747 -0.371,-0.371 -2.958,-1.837 -4.705,-2.667 -3.075,-1.461 -4.841,-4.025 -8.514,-12.367 -0.407,-0.921 -0.971,-2.363 -1.233,-3.152 -0.271,-0.811 -1.041,-2.958 -1.738,-4.85 -1.504,-4.074 -1.549,-5.092 -0.308,-7.129 1.341,-2.202 1.323,-6.644 -0.032,-9.069 -1.276,-2.279 -2.773,-3.188 -6.507,-3.959 -2.91,-0.6 -2.91,-0.6 -5.578,1 -1.455,0.873 -2.997,1.887 -3.394,2.232 -0.403,0.348 -2.57,0.863 -4.85,1.15 -8.149,1.03 -15.649,2.42 -18.089,3.354 -0.769,0.294 -3.42,0.682 -5.846,0.853 -2.423,0.173 -4.865,0.613 -5.382,0.971 -0.522,0.361 -2.085,0.654 -3.492,0.654 H 98.884 L 98.58,33.531 C 97.532,27.178 93.264,12.598 91.353,8.846 90.214,6.611 87.681,4.135 84.917,2.555 83.492,1.74 75.998,-0.024 74.057,0 73.14,0.012 71.171,0.709 69.62,1.572 Z m 12.1,2.592 c 6.304,2.276 9.387,5.959 9.759,11.667 0.178,2.716 0.079,3.54 -0.423,3.54 -0.356,0 -1.552,0.421 -2.619,0.921 -1.08,0.507 -3.273,1.5 -4.873,2.207 -1.602,0.707 -3.751,1.711 -4.779,2.231 -1.017,0.516 -2.218,0.946 -2.642,0.946 -0.827,0 -0.974,-0.194 -2.764,-3.686 C 72.856,20.972 72.162,19.874 71.874,19.612 71.1,18.904 64.229,7.272 64.455,7.05 64.563,6.944 66.588,5.868 69.013,4.628 73.087,2.546 73.551,2.419 75.972,2.712 77.41,2.887 79.974,3.535 81.72,4.164 Z M 62.043,8.992 c 0.841,1.013 1.78,2.619 2.153,3.686 0.17,0.484 1.883,3.08 2.756,4.438 0.874,1.357 1.799,2.816 2.076,3.273 1.557,2.571 3.483,5.223 4.926,6.79 l 1.654,1.794 4.463,-2.183 c 2.473,-1.21 5.65,-2.722 7.129,-3.394 1.455,-0.662 3.042,-1.4 3.491,-1.625 0.639,-0.319 0.995,-0.073 1.577,1.091 0.412,0.824 0.751,1.745 0.751,2.037 0,0.289 0.411,1.309 0.897,2.231 0.493,0.933 1.378,3.128 1.964,4.874 0.956,2.848 1.052,3.977 0.921,10.912 -0.137,7.324 -0.216,7.865 -1.454,10.16 -0.733,1.358 -1.559,3.023 -1.879,3.784 -0.72,1.72 -1.364,1.454 -2.814,-1.164 -2.201,-3.977 -4.44,-7.251 -5.153,-7.537 -0.362,-0.145 -1.187,0.204 -1.77,0.747 -0.582,0.544 -1.283,1.018 -1.503,1.018 -0.223,0 -1.236,0.613 -2.207,1.334 -0.97,0.721 -2.095,1.556 -2.45,1.818 -0.349,0.259 -1.163,0.995 -1.746,1.577 -0.582,0.582 -1.317,1.091 -1.577,1.091 -0.265,0 -0.736,0.557 -1.042,1.236 -0.442,0.98 -0.39,1.964 0.242,4.729 0.671,2.925 0.71,4.074 0.238,7.081 -0.793,5.061 -1.183,5.383 -6.517,5.383 -6.208,0 -9.782,-1.307 -7.517,-2.75 0.346,-0.22 1.344,-1.323 2.207,-2.439 1.494,-1.932 1.559,-2.183 1.261,-4.85 -0.496,-4.414 -2.222,-7.492 -5.069,-9.039 -1.31,-0.712 -3.116,-1.291 -4.025,-1.291 -1.433,0 -2.049,0.46 -4.704,3.516 -1.686,1.94 -3.447,3.908 -3.928,4.389 C 44.909,62.193 44.512,62.84 44.5,63.164 44.432,65.105 37.862,54.725 36.428,50.409 35.315,47.062 35.837,31.9 37.171,28.828 39.108,24.365 40.68,21.787 42.764,19.661 48.371,13.939 57.009,8.216 60.04,8.216 c 0.728,0.001 1.659,0.361 2.003,0.776 z m 88.737,19.249 c 1.902,1.283 2.53,3.11 2.188,6.359 -0.358,3.394 -1.686,4.655 -4.904,4.655 -2.667,0 -4.856,-0.852 -7.42,-2.889 -1.242,-0.986 -1.551,-1.573 -1.551,-2.93 0,-3.104 0.489,-3.915 3.103,-5.128 3.25,-1.511 6.408,-1.535 8.584,-0.067 z m -14.16,6.067 c 0.872,3.201 0.872,3.201 -1.7,3.806 -1.323,0.312 -3.88,1.021 -5.77,1.602 -1.886,0.58 -5.334,1.579 -7.759,2.248 -11.835,3.268 -15.438,4.338 -16.538,4.912 -0.505,0.262 -1.721,0.632 -2.691,0.818 l -1.77,0.34 -0.34,-2.498 c -0.185,-1.366 -0.196,-3.661 -0.024,-5.068 0.309,-2.521 0.353,-2.58 2.352,-3.06 2.084,-0.5 5.237,-1.135 10.281,-2.068 5.431,-1.006 7.261,-1.313 12.61,-2.118 2.957,-0.446 5.42,-0.901 5.528,-1.022 0.106,-0.118 1.334,-0.217 2.692,-0.217 h 2.496 z m 15.639,8.706 c 0.3,0.719 0.86,2.037 1.213,2.862 0.353,0.824 0.655,1.84 0.655,2.206 0,0.388 0.185,0.877 0.436,1.14 0.242,0.254 1.118,2.304 1.964,4.583 0.845,2.28 1.708,4.556 1.931,5.092 0.925,2.231 1.973,5.396 1.973,5.966 0,0.844 -1.357,2.139 -3.588,3.421 -1.455,0.837 -2.312,1.021 -3.712,0.797 l -1.818,-0.29 -0.314,-3.007 c -0.174,-1.649 -0.612,-4.102 -0.971,-5.432 -0.357,-1.322 -0.809,-3.637 -0.993,-5.092 -0.186,-1.455 -0.638,-3.77 -0.996,-5.092 -0.354,-1.318 -0.798,-3.564 -0.968,-4.922 l -0.316,-2.498 2.109,-0.484 c 1.164,-0.268 2.274,-0.508 2.474,-0.534 0.198,-0.028 0.617,0.556 0.921,1.284 z M 88.665,57.587 c 1.451,3.249 1.256,4.202 -1.367,6.754 -1.261,1.227 -3.147,2.782 -4.22,3.479 -1.067,0.693 -2.049,1.392 -2.182,1.552 -0.132,0.159 -1.285,0.894 -2.547,1.624 L 76.046,72.33 V 57.927 l 4.728,-2.983 4.728,-2.984 1.116,1.771 c 0.622,0.989 1.526,2.692 2.047,3.856 z M 57.257,58.8 c 4.534,4.558 4.758,5.81 1.731,9.65 -2.37,3.007 -8.969,10.502 -11.529,13.094 -0.935,0.948 -2.943,3.056 -4.389,4.608 -7.407,7.953 -16.926,17.604 -17.365,17.604 -0.267,0 -0.734,-0.315 -1.042,-0.703 -0.311,-0.39 -1.14,-0.832 -1.867,-0.993 -0.728,-0.162 -1.73,-0.604 -2.256,-0.995 -0.909,-0.677 -0.886,-0.776 0.607,-2.618 0.865,-1.067 1.552,-2.152 1.552,-2.45 0,-0.294 1.532,-1.454 1.673,-1.891 0.15,-0.465 0.636,-1.237 1.115,-1.77 0.481,-0.536 1.25,-1.576 1.777,-2.401 1.33,-2.085 10.042,-13.965 10.663,-14.54 0.294,-0.273 0.941,-1.124 1.444,-1.901 0.784,-1.211 6.299,-8.245 8.213,-10.475 0.347,-0.405 1.368,-1.698 2.297,-2.911 0.93,-1.212 1.885,-2.44 2.15,-2.764 1.028,-1.256 3.104,-0.678 5.226,1.456 z m 110.158,9.907 c 2.667,1.677 6.314,4.673 8.659,7.116 1.35,1.406 1.817,2.289 1.817,3.444 0,1.679 -0.389,1.958 -6.063,4.365 -1.067,0.453 -2.278,0.987 -2.692,1.187 -0.414,0.201 -1.503,0.527 -2.425,0.728 -0.921,0.2 -1.89,0.526 -2.157,0.727 -0.267,0.2 -1.794,0.734 -3.395,1.188 -1.6,0.453 -3.564,1.053 -4.364,1.334 -0.8,0.28 -2.328,0.716 -3.396,0.969 -1.078,0.256 -2.909,0.763 -4.121,1.14 -1.2,0.374 -3.492,1.039 -5.092,1.479 -1.6,0.441 -3.402,0.997 -4.002,1.237 -1.077,0.431 -1.09,0.388 -1.09,-3.249 0,-4.103 1.101,-7.129 4.167,-11.446 0.895,-1.261 1.651,-2.417 1.651,-2.522 0,-0.354 2.766,-2.972 3.979,-3.765 0.67,-0.439 2.739,-0.945 4.631,-1.133 2.861,-0.283 3.885,-0.65 6.28,-2.247 3.345,-2.231 4.778,-2.335 7.613,-0.552 z m 11.846,16.427 c 0.733,1.6 0.71,2.618 -0.061,2.618 -0.341,0 -1.505,0.448 -2.521,0.97 -1.053,0.54 -3.517,1.282 -5.553,1.674 -2.038,0.391 -4.244,0.92 -4.972,1.192 -1.407,0.525 -5.084,2.811 -6.159,3.826 -1.341,1.267 -3.297,1.675 -8.438,1.759 -4.608,0.075 -5.339,0.207 -6.523,1.176 -0.728,0.595 -1.718,1.213 -2.183,1.358 -0.484,0.152 -3.174,1.14 -3.471,0.363 -1.023,-2.666 -0.093,-3.48 6.017,-5.278 1.454,-0.428 3.108,-0.972 3.638,-1.196 0.536,-0.228 2.812,-0.987 5.092,-1.698 2.28,-0.71 4.556,-1.469 5.092,-1.697 0.534,-0.227 4.557,-1.544 8.972,-2.934 4.412,-1.391 8.437,-2.705 8.972,-2.929 1.406,-0.59 1.476,-0.563 2.098,0.796 z M 20.856,104.207 c 0.349,0.288 1.333,1.083 2.206,1.781 0.856,0.684 1.942,2.037 2.377,2.959 0.753,1.597 0.749,1.842 -0.078,4.17 -0.912,2.57 -2.011,4.39 -4.011,6.645 -0.602,0.678 -1.076,1.361 -1.076,1.551 0,0.191 -0.873,0.579 -1.988,0.884 -2.425,0.666 -4.441,0.069 -6.596,-1.953 -1.511,-1.418 -1.6,-1.695 -1.6,-4.993 0,-5.771 0.825,-7.495 5.092,-10.647 1.987,-1.468 4.19,-1.622 5.674,-0.397 z m 2.28,20.792 c 0.295,0.725 1.258,2.716 2.159,4.461 4.155,8.051 5.362,11.303 5.384,14.501 0.018,2.764 -0.109,3.166 -1.338,4.211 -1.551,1.322 -4.73,1.572 -5.659,0.444 -1.578,-1.912 -3.742,-7.565 -6.127,-16.003 -0.452,-1.6 -1.095,-3.783 -1.429,-4.85 l -0.606,-1.941 2.473,-1.042 c 3.444,-1.45 4.484,-1.406 5.143,0.219 z m 12.705,24.22 c 1.359,0.734 2.933,1.993 3.492,2.792 0.578,0.825 2.68,3.905 3.783,5.505 1.336,1.94 2.068,3.584 2.231,5.02 l 0.242,2.132 -1.625,-0.168 c -0.889,-0.094 -3.71,0.078 -6.232,0.378 -4.316,0.514 -31.075,1.464 -31.474,1.118 -0.658,-0.57 3.346,-5.623 8.05,-10.16 l 5.626,-5.425 1.261,0.8 c 0.679,0.431 1.417,1.013 1.601,1.261 0.22,0.3 0.727,0.275 1.454,-0.074 0.603,-0.287 1.94,-0.647 2.91,-0.78 1.649,-0.228 5.238,-2.55 5.238,-3.39 0,-0.639 0.921,-0.373 3.443,0.991 z m 11.558,19.865 c 0.838,3.006 0.707,3.296 -1.762,3.9 -6.886,1.68 -7.749,1.732 -11.057,0.667 -4.074,-1.311 -5.626,-1.272 -9.7,0.249 -4.801,1.792 -5.612,1.857 -8.827,0.718 -3.006,-1.064 -6.145,-1.303 -8.001,-0.606 -3.832,1.437 -4.867,1.601 -5.577,0.89 -0.528,-0.528 -0.569,-0.969 -0.183,-1.987 1.048,-2.763 1.54,-2.93 9.688,-3.292 7.512,-0.335 17.216,-1.013 25.509,-1.783 2.425,-0.225 5.486,-0.438 6.887,-0.479 2.523,-0.073 2.523,-0.073 3.023,1.723 z"
   style="fill-rule:nonzero"
   id="path822"
   sodipodi:nodetypes="ccccsccsccccscccsccccccccsccccccccccccscsccccccccccccscccccccccccccccccscsccccssccccccccccccccccccsccccccccscccscccccccccccccccssccccccccscccscccscsccsccccccccccscscccccccccccccccsccccscccscccccccccccccccccccccccccccsccccscccccccccccsccccccccccscscccccsccccccccccccccccccccsccscccccccccccccccsccccccccccsccccccccccccc" />

            <path
   d="m 78.956,11.515 c -0.68,0.461 -1.319,0.931 -1.455,1.067 -0.136,0.135 -1.164,0.864 -2.328,1.649 -1.309,0.883 -1.923,1.569 -1.649,1.843 0.455,0.456 2.376,-0.632 4.655,-2.638 0.534,-0.47 1.167,-0.853 1.407,-0.853 0.485,0 1.794,-1.203 1.794,-1.65 0,-0.534 -1.212,-0.243 -2.424,0.582 z"
   style="fill-rule:nonzero"
   id="path824" />

            <path
   d="m 57.956,24.415 c -1.546,1.547 -1.951,2.813 -1.566,4.898 0.257,1.395 0.596,1.728 2.197,2.164 3.548,0.966 5.783,-0.709 5.801,-4.346 0.016,-2.911 -0.412,-3.443 -2.988,-3.732 -1.892,-0.213 -2.351,-0.077 -3.444,1.016 z m 4.074,0.793 c 1.397,0.752 1.261,3.776 -0.195,4.32 -1.885,0.706 -3.011,-0.118 -2.942,-2.155 0.083,-2.425 1.209,-3.202 3.137,-2.165 z"
   style="fill-rule:nonzero"
   id="path826" />

            <path
   d="m 45.104,25.16 c -1.105,1.091 -1.53,2.068 -1.765,4.056 -0.391,3.297 -0.069,4.057 2.008,4.733 1.315,0.428 2.133,0.411 3.637,-0.076 2.335,-0.757 3.298,-2.426 3.298,-5.725 0,-2.133 -0.169,-2.544 -1.406,-3.422 -2.038,-1.445 -4.021,-1.297 -5.772,0.434 z m 4.947,1.664 c 0.833,0.616 0.819,0.744 -0.299,2.78 -1.224,2.231 -2.066,2.68 -4.066,2.172 -1.746,-0.444 -1.503,-2.306 0.534,-4.096 1.891,-1.663 2.544,-1.808 3.831,-0.856 z"
   style="fill-rule:nonzero"
   id="path828" />

            <path
   d="m 83.2,36.83 c -1.844,1.242 -2.304,1.834 -2.304,2.958 0,1.945 3.152,4.072 5.335,3.6 1.939,-0.42 3.637,-2.824 3.637,-5.152 0,-2.236 -0.146,-2.395 -2.473,-2.705 -1.554,-0.207 -2.305,0.025 -4.195,1.299 z m 4.395,1.794 c 0.198,1.424 -2.48,2.801 -3.935,2.023 -0.94,-0.503 -0.921,-0.562 0.63,-1.916 1.843,-1.607 3.089,-1.647 3.305,-0.107 z"
   style="fill-rule:nonzero"
   id="path830" />

            <path
   d="m 70.42,40.216 c -1.386,0.566 -3.589,4.083 -3.589,5.732 0,1.928 1.358,3.007 3.783,3.007 1.698,0 2.353,-0.315 3.929,-1.891 1.794,-1.794 2.653,-3.907 2.133,-5.238 -0.619,-1.579 -4.122,-2.481 -6.256,-1.61 z m 3.38,2.532 c 0.543,2.094 -1.37152,3.760774 -3.72,3.448 -0.974933,-0.129843 -0.671206,0.09142 -1.309,-0.248 -0.171666,-0.09136 0.583535,-0.827523 1.331,-1.891 1.159,-1.649 1.756,-2.092 3.13,-2.326 0.16,-0.028 0.417,0.434 0.568,1.017 z"
   style="fill-rule:nonzero"
   id="path832"
   sodipodi:nodetypes="cssscccssscc" />

            <path
   d="m 84.459,142.056 c 0,1.91 -0.644,3.916 -1.928,6.016 -1.382,2.244 -3.594,3.366 -6.641,3.366 -0.714,0 -3.736,-0.433 -9.067,-1.3 -7.284,-1.141 -13.211,-4.139 -17.78,-8.992 -4.761,-4.997 -7.141,-11.134 -7.141,-18.416 0,-7.278 2.451,-13.606 7.354,-18.984 5.046,-5.566 11.163,-8.302 18.351,-8.208 h 1.572 c 2.759,0.049 4.306,0.097 4.641,0.144 1.57,0.238 2.926,0.882 4.07,1.93 2.38,2.193 3.57,4.364 3.57,6.508 0,0.906 -0.275,1.765 -0.823,2.575 -0.549,0.811 -1.228,1.216 -2.037,1.216 -0.716,0 -1.955,-0.539 -3.719,-1.62 -1.764,-1.081 -3.193,-1.599 -4.289,-1.551 h -0.429 c -4.53,0.237 -8.223,2.165 -11.083,5.783 -2.719,3.428 -4.077,7.497 -4.077,12.209 0,4.571 1.644,8.664 4.932,12.282 3.289,3.618 7.197,5.426 11.725,5.426 1.24,0 2.824,-0.612 4.755,-1.84 1.929,-1.227 3.3,-1.841 4.111,-1.841 1.144,0 2.122,0.621 2.931,1.862 0.667,1.096 1.002,2.242 1.002,3.435 z"
   style="fill-rule:nonzero"
   id="path834" />

            <path
   d="m 133.485,145.784 c 0,2 -1.405,3.452 -4.213,4.355 -2.809,0.905 -5.26,1.356 -7.354,1.356 -1.905,0 -3.57,-0.428 -4.999,-1.286 -1.714,-0.998 -2.57,-2.378 -2.57,-4.141 0,-1.809 1.369,-3.642 4.107,-5.498 2.737,-1.856 4.106,-3.689 4.106,-5.498 0,-2.189 -1.238,-3.976 -3.713,-5.356 -2.047,-1.189 -4.261,-1.784 -6.641,-1.784 -2.572,0 -5.189,0.595 -7.854,1.784 -3.333,1.381 -4.998,3.167 -4.998,5.356 0,1.381 0.511,3.214 1.534,5.498 1.023,2.284 1.536,4.117 1.536,5.498 0,1.763 -0.833,3.143 -2.498,4.141 -1.428,0.858 -3.096,1.286 -4.999,1.286 -2,0 -4.5,-0.464 -7.498,-1.392 -3,-0.928 -4.499,-2.605 -4.499,-5.033 0,-1.998 1.048,-5.438 3.141,-10.316 2.094,-4.878 3.143,-8.651 3.143,-11.317 0,-2.713 -1.06,-6.59 -3.179,-11.636 -2.119,-5.045 -3.177,-8.662 -3.177,-10.853 0,-2.616 1.535,-4.414 4.605,-5.388 3.071,-0.975 5.582,-1.464 7.535,-1.464 1.759,0 3.306,0.404 4.64,1.214 1.571,1 2.356,2.308 2.356,3.925 0,1.905 -0.44,4.677 -1.32,8.317 -0.881,3.64 -1.32,6.387 -1.32,8.244 0,2.093 1.666,4.068 4.999,5.924 2.95,1.666 5.568,2.499 7.852,2.499 2.238,0 4.381,-0.594 6.427,-1.784 2.38,-1.38 3.57,-3.117 3.57,-5.211 0,-1.617 -1.262,-4.604 -3.784,-8.958 -2.523,-4.354 -3.784,-7.366 -3.784,-9.031 0,-1.617 0.784,-2.925 2.356,-3.925 1.333,-0.81 2.88,-1.214 4.641,-1.214 1.951,0 4.498,0.5 7.641,1.5 2.713,0.856 4.07,2.331 4.07,4.424 0,2.382 -1.036,6.653 -3.106,12.816 -2.072,6.164 -3.107,10.746 -3.107,13.744 0,2.761 1.058,6.212 3.177,10.352 2.12,4.14 3.177,7.092 3.177,8.852 z"
   style="fill-rule:nonzero"
   id="path836" />

            <path
   d="m 171.685,146.194 c 0,2.378 -0.762,3.947 -2.286,4.706 -2.665,1.33 -4.975,1.996 -6.924,1.996 -2.095,0 -3.143,-0.949 -3.143,-2.844 0,-0.238 0.036,-0.569 0.108,-0.996 0.072,-0.426 0.108,-0.759 0.108,-0.996 0,-1.422 -0.5,-2.133 -1.5,-2.133 -0.714,0 -2.333,0.945 -4.854,2.834 -2.523,1.891 -4.547,2.835 -6.071,2.835 -3.38,0 -6.401,-1.5 -9.067,-4.504 -2.572,-2.859 -3.856,-6.003 -3.856,-9.434 0,-4.384 2.555,-7.982 7.666,-10.794 4.25,-2.334 8.785,-3.501 13.611,-3.501 0.382,0 0.931,0.144 1.647,0.428 0.716,0.285 1.243,0.428 1.577,0.428 0.613,0 0.918,-0.405 0.918,-1.215 0,-2.38 -1.142,-4.259 -3.426,-5.64 -1.905,-1.189 -4.118,-1.784 -6.641,-1.784 -1.428,0 -3.083,1.048 -4.962,3.142 -1.882,2.094 -3.416,3.141 -4.605,3.141 -1.049,0 -1.917,-0.344 -2.608,-1.031 -0.691,-0.688 -1.034,-1.553 -1.034,-2.597 0,-1.566 0.547,-3.297 1.642,-5.195 1.284,-2.228 3.403,-3.344 6.354,-3.344 1.38,0 3.855,0.309 7.427,0.926 5.378,0.903 8.734,1.687 10.067,2.353 2.713,1.378 4.713,4.064 5.998,8.054 0.571,1.759 0.856,3.684 0.856,5.775 0,0.951 -0.072,2.388 -0.214,4.313 -0.144,1.925 -0.214,3.363 -0.214,4.313 0,0.618 0.475,1.806 1.428,3.564 1.047,1.902 1.616,3.161 1.712,3.778 0.191,1.189 0.286,2.33 0.286,3.422 z m -16.137,-8.55 c 0,-1.237 -0.393,-2.26 -1.178,-3.07 -0.786,-0.81 -1.822,-1.214 -3.107,-1.214 -2.665,0 -5.021,0.381 -7.068,1.142 -2.903,1.047 -4.355,2.666 -4.355,4.854 0,2 0.88,3.619 2.643,4.856 1.521,1.048 3.331,1.571 5.426,1.571 2.094,0 3.889,-0.82 5.389,-2.463 1.5,-1.642 2.25,-3.534 2.25,-5.676 z"
   style="fill-rule:nonzero"
   id="path838" />

            <path
   d="m 218.056,122.582 c 0,7.472 -2.095,14.017 -6.283,19.633 -4.57,6.187 -10.474,9.281 -17.71,9.281 -7.283,0 -13.256,-3.068 -17.921,-9.209 -4.238,-5.569 -6.355,-12.136 -6.355,-19.705 0,-7.377 2.166,-13.85 6.499,-19.418 4.664,-6.044 10.59,-9.068 17.778,-9.068 7.141,0 13.019,3.048 17.638,9.14 4.236,5.568 6.354,12.016 6.354,19.346 z m -6.71,4.637 c 0,-5.046 -0.595,-9.307 -1.784,-12.782 -1.763,-5.141 -4.595,-7.713 -8.499,-7.713 -4.237,0 -7.808,2.31 -10.711,6.927 -2.475,3.951 -3.713,8.069 -3.713,12.353 0,5.475 0.428,9.592 1.286,12.352 1.38,4.713 4.092,7.069 8.139,7.069 4.238,0 7.927,-2.165 11.069,-6.498 2.808,-3.902 4.213,-7.805 4.213,-11.708 z"
   style="fill-rule:nonzero"
   id="path840" />

            <path
   d="m 254.845,136.358 c 0,0.477 -0.049,0.905 -0.142,1.286 -0.716,3.38 -2.144,5.95 -4.284,7.711 -1.715,1.381 -4.189,2.428 -7.427,3.142 -3.093,0.523 -6.213,1.047 -9.353,1.571 -5.332,0.952 -8.498,1.428 -9.496,1.428 -2.477,0 -4.453,-0.833 -5.928,-2.499 -1.476,-1.665 -2.213,-3.761 -2.213,-6.284 0,-1.237 0.333,-2.403 1,-3.498 0.761,-1.333 1.713,-2 2.856,-2 0.951,0 2.534,0.644 4.747,1.928 2.213,1.285 3.986,1.928 5.32,1.928 0.475,0 1.63,0.036 3.462,0.108 1.833,0.072 3.32,0.106 4.463,0.106 6.187,0 9.283,-1.142 9.283,-3.426 0,-2.094 -2.57,-4.449 -7.711,-7.067 -4.761,-2.332 -9.522,-4.664 -14.282,-6.997 -5.141,-2.903 -7.711,-5.758 -7.711,-8.567 0,-0.522 0.095,-1.117 0.286,-1.784 1.331,-4.902 3.45,-8.971 6.354,-12.208 3.284,-3.616 7.092,-5.686 11.425,-6.212 5.283,-0.618 8.305,-0.928 9.067,-0.928 2.618,0 4.926,1.191 6.926,3.569 0.952,1.094 1.428,2.879 1.428,5.351 0,3.141 -0.928,4.71 -2.784,4.71 -0.762,0 -2.083,-0.583 -3.962,-1.749 -1.882,-1.165 -3.392,-1.75 -4.534,-1.75 -1.905,0 -3.761,1.809 -5.571,5.426 -1.665,3.284 -2.498,6.164 -2.498,8.639 0,1.953 1.833,3.81 5.498,5.571 3.427,1.618 6.853,3.214 10.282,4.784 3.666,2.191 5.499,4.761 5.499,7.711 z"
   style="fill-rule:nonzero"
   id="path842" />

            <path
   d="m 65.409,169.739 c 0,1.517 -0.794,2.794 -2.381,3.833 -1.52,0.997 -3.313,1.496 -5.38,1.496 -0.916,0 -1.701,-0.156 -2.35,-0.471 -0.651,-0.316 -1.502,-0.923 -2.556,-1.825 l 2.464,-4.265 c 0.465,1.141 1.362,1.712 2.69,1.712 0.807,0 1.439,-0.157 1.899,-0.473 0.458,-0.314 0.688,-0.808 0.688,-1.479 0,-0.466 -0.568,-0.883 -1.704,-1.253 -1.725,-0.562 -2.779,-0.951 -3.162,-1.171 -1.136,-0.63 -1.704,-1.486 -1.704,-2.567 0,-1.164 0.678,-2.161 2.033,-2.989 1.355,-0.828 2.867,-1.243 4.537,-1.243 0.985,0 1.806,0.099 2.464,0.299 0.656,0.198 1.355,0.58 2.094,1.142 l -2.32,3.403 c -0.123,-0.476 -0.342,-0.856 -0.657,-1.141 -0.314,-0.286 -0.725,-0.428 -1.232,-0.428 -0.548,0 -1.017,0.113 -1.406,0.338 -0.39,0.226 -0.585,0.564 -0.585,1.015 0,0.369 0.568,0.731 1.704,1.087 1.492,0.464 2.546,0.929 3.162,1.393 1.134,0.847 1.702,2.042 1.702,3.587 z"
   style="fill-rule:nonzero"
   id="path844" />

            <path
   d="m 76.888,172.779 c -0.63,0.616 -1.267,1.064 -1.91,1.344 -0.643,0.281 -1.375,0.421 -2.196,0.421 -1.876,0 -3.453,-0.723 -4.733,-2.167 -1.28,-1.444 -1.919,-3.213 -1.919,-5.308 0,-2.204 0.52,-4.051 1.56,-5.544 1.109,-1.587 2.539,-2.382 4.291,-2.382 0.712,0 1.218,0.024 1.519,0.073 0.3,0.048 0.732,0.195 1.293,0.442 v 5.76 c -0.315,-0.217 -0.712,-0.325 -1.19,-0.325 -0.657,0 -1.229,0.164 -1.715,0.491 -0.486,0.328 -0.729,0.78 -0.729,1.353 0,0.465 0.225,0.861 0.677,1.189 0.452,0.328 1.007,0.491 1.664,0.491 0.342,0 0.647,-0.05 0.914,-0.15 0.266,-0.101 0.489,-0.292 0.667,-0.575 z"
   style="fill-rule:nonzero"
   id="path846" />

            <path
   d="m 83.22,174.125 -5.009,0.637 v -15.113 l 5.009,-0.431 z"
   style="fill-rule:nonzero"
   id="path848" />

            <path
   d="m 93.794,159.318 -0.102,5.431 -5.213,0.2 v 1.575 l 2.893,-0.1 v 1.873 l -2.293,0.205 v 1.461 l 4.326,0.103 0.287,2.716 -8.028,1.686 -0.41,-14.41 z"
   style="fill-rule:nonzero"
   id="path850" />

            <path
   d="m 107.168,174.475 -7.392,-8.262 2.012,7.667 -6.344,1.088 v -15.797 l 7.515,5.811 -1.047,-6.338 5.256,2.22 z"
   style="fill-rule:nonzero"
   id="path852" />

            <path
   d="m 119.262,172.779 c -0.63,0.616 -1.267,1.064 -1.91,1.344 -0.643,0.281 -1.375,0.421 -2.196,0.421 -1.876,0 -3.452,-0.723 -4.732,-2.167 -1.281,-1.444 -1.92,-3.213 -1.92,-5.308 0,-2.204 0.52,-4.051 1.56,-5.544 1.109,-1.587 2.54,-2.382 4.292,-2.382 0.712,0 1.217,0.024 1.518,0.073 0.301,0.048 0.732,0.195 1.294,0.442 v 5.76 c -0.316,-0.217 -0.712,-0.325 -1.191,-0.325 -0.657,0 -1.229,0.164 -1.715,0.491 -0.486,0.328 -0.729,0.78 -0.729,1.353 0,0.465 0.226,0.861 0.678,1.189 0.452,0.328 1.006,0.491 1.663,0.491 0.342,0 0.647,-0.05 0.914,-0.15 0.267,-0.101 0.489,-0.292 0.668,-0.575 z"
   style="fill-rule:nonzero"
   id="path854" />

            <path
   d="m 129.126,159.318 -0.103,5.431 -5.213,0.2 v 1.575 l 2.893,-0.1 v 1.873 l -2.293,0.205 v 1.461 l 4.326,0.103 0.287,2.716 -8.028,1.686 -0.411,-14.41 z"
   style="fill-rule:nonzero"
   id="path856" />

            <path
   d="m 152.992,169.859 -4.332,4.853 -5.051,-5.594 -1.17,5 -2.936,-0.007 -0.451,-14.105 c 0.547,-0.342 1.228,-0.61 2.043,-0.801 0.815,-0.191 1.666,-0.287 2.556,-0.287 1.861,0 3.374,0.355 4.537,1.066 1.246,0.767 1.868,1.82 1.868,3.16 0,0.808 -0.252,1.549 -0.759,2.226 -0.506,0.677 -1.225,1.275 -2.155,1.794 z m -7.616,-5.626 c 0,-0.409 -0.179,-0.764 -0.536,-1.064 -0.357,-0.3 -0.763,-0.45 -1.217,-0.45 -0.248,0 -0.487,0.069 -0.72,0.207 l 0.474,3.068 h 0.35 c 0.441,0 0.824,-0.17 1.154,-0.512 0.33,-0.341 0.495,-0.758 0.495,-1.249 z"
   style="fill-rule:nonzero"
   id="path858" />

            <path
   d="m 165.613,166.55 c 0,0.698 -0.11,1.504 -0.329,2.42 -0.355,1.477 -0.896,2.659 -1.621,3.548 -0.998,1.217 -2.277,1.826 -3.836,1.826 -1.752,0 -3.229,-0.704 -4.433,-2.113 -1.204,-1.409 -1.806,-3.104 -1.806,-5.087 0,-2.214 0.561,-4.094 1.683,-5.64 1.19,-1.64 2.709,-2.46 4.556,-2.46 1.654,0 3.032,0.732 4.134,2.194 1.101,1.463 1.652,3.234 1.652,5.312 z m -3.75,-1.472 c 0,-0.451 -0.152,-0.842 -0.453,-1.17 -0.302,-0.328 -0.666,-0.493 -1.091,-0.493 -0.604,0 -1.159,0.247 -1.667,0.739 -0.577,0.562 -0.864,1.28 -0.864,2.156 0,0.506 0.147,0.927 0.443,1.262 0.295,0.336 0.668,0.504 1.121,0.504 0.576,0 1.139,-0.328 1.687,-0.986 0.548,-0.657 0.824,-1.328 0.824,-2.012 z"
   style="fill-rule:nonzero"
   id="path860" />

            <path
   d="m 180.141,172.466 -4.537,2.609 -1.601,-3.425 -2.525,0.72 -1.602,3.149 -4.312,-2.529 5.215,-14.596 3.512,1.048 z m -6.114,-3.416 -1.526,-5.321 -1.299,5.321 z"
   style="fill-rule:nonzero"
   id="path862" />

            <path
   d="m 194.483,167.052 c 0,1.928 -1.014,3.59 -3.039,4.984 -1.971,1.354 -4.209,2.032 -6.714,2.032 -0.466,0 -0.911,-0.028 -1.335,-0.083 -0.424,-0.055 -0.82,-0.144 -1.19,-0.267 l -2.238,-13.233 c 0.794,-0.451 1.708,-0.817 2.741,-1.097 1.033,-0.281 2.077,-0.42 3.131,-0.42 2.34,0 4.216,0.492 5.625,1.477 1.136,0.794 1.957,1.887 2.463,3.283 0.371,1.025 0.556,2.134 0.556,3.324 z m -4.332,-0.989 c 0.027,-0.136 0.041,-0.274 0.041,-0.411 0,-0.451 -0.192,-0.815 -0.575,-1.088 -0.589,-0.424 -1.588,-0.636 -2.998,-0.636 l 0.288,4.579 c 0.848,0 1.601,-0.236 2.258,-0.709 0.658,-0.472 0.986,-1.05 0.986,-1.735 z"
   style="fill-rule:nonzero"
   id="path864" />

            <path
   d="m 208.032,169.739 c 0,1.517 -0.793,2.794 -2.381,3.833 -1.52,0.997 -3.313,1.496 -5.38,1.496 -0.916,0 -1.7,-0.156 -2.35,-0.471 -0.65,-0.316 -1.502,-0.923 -2.556,-1.825 l 2.464,-4.265 c 0.465,1.141 1.362,1.712 2.689,1.712 0.808,0 1.441,-0.157 1.899,-0.473 0.458,-0.314 0.687,-0.808 0.687,-1.479 0,-0.466 -0.568,-0.883 -1.704,-1.253 -1.724,-0.562 -2.778,-0.951 -3.161,-1.171 -1.136,-0.63 -1.704,-1.486 -1.704,-2.567 0,-1.164 0.677,-2.161 2.032,-2.989 1.355,-0.828 2.868,-1.243 4.537,-1.243 0.985,0 1.808,0.099 2.464,0.299 0.657,0.198 1.355,0.58 2.094,1.142 l -2.319,3.403 c -0.124,-0.476 -0.343,-0.856 -0.657,-1.141 -0.315,-0.286 -0.726,-0.428 -1.232,-0.428 -0.548,0 -1.017,0.113 -1.407,0.338 -0.389,0.226 -0.584,0.564 -0.584,1.015 0,0.369 0.568,0.731 1.704,1.087 1.492,0.464 2.546,0.929 3.161,1.393 1.136,0.847 1.704,2.042 1.704,3.587 z"
   style="fill-rule:nonzero"
   id="path866" />

            <path
   d="m 222.055,159.437 -1.601,14.713 -4.64,-0.739 0.411,-5.175 -3.122,0.924 0.617,5.384 -3.917,-1.334 -0.6,-12.088 4.325,-0.821 v 4.783 h 2.809 l 1.496,-6.49 z"
   style="fill-rule:nonzero"
   id="path868" />

            <path
   d="m 235.292,166.55 c 0,0.698 -0.109,1.504 -0.328,2.42 -0.355,1.477 -0.896,2.659 -1.621,3.548 -0.998,1.217 -2.278,1.826 -3.837,1.826 -1.751,0 -3.228,-0.704 -4.432,-2.113 -1.204,-1.409 -1.807,-3.104 -1.807,-5.087 0,-2.214 0.561,-4.094 1.684,-5.64 1.189,-1.64 2.709,-2.46 4.555,-2.46 1.655,0 3.033,0.732 4.135,2.194 1.101,1.463 1.651,3.234 1.651,5.312 z m -3.749,-1.472 c 0,-0.451 -0.151,-0.842 -0.452,-1.17 -0.303,-0.328 -0.666,-0.493 -1.092,-0.493 -0.604,0 -1.159,0.247 -1.666,0.739 -0.577,0.562 -0.865,1.28 -0.865,2.156 0,0.506 0.148,0.927 0.444,1.262 0.294,0.336 0.668,0.504 1.12,0.504 0.577,0 1.139,-0.328 1.687,-0.986 0.549,-0.657 0.824,-1.328 0.824,-2.012 z"
   style="fill-rule:nonzero"
   id="path870" />

            <path
   d="m 253.341,163.413 -7.863,11.775 -2.915,-6.804 -3.184,6.21 -3.51,-15.325 4.352,0.247 1.273,6.076 2.464,-3.88 1.17,4.845 3.757,-5.584 z"
   style="fill-rule:nonzero"
   id="path872" />

        </g>

</g>
</svg>
